# xmcd CD database file
#
# Track frame offsets:
#	150
#	44094
#	69161
#	85260
#	119110
#	147221
#	165680
#	192460
#	211359
#	235134
#	249739
#
# Disc length: 3821 seconds
#
# Revision: 0
# Processed by: cddbd v1.5.1PL0 Copyright (c) Steve Scherf et al.
# Submitted via: CDex 1.51
#
DISCID=a60eeb0b
DTITLE=Marian McPartland and Friends - 85 Candles - Live In New York, CD02
DYEAR=2003
DGENRE=Jazz
TTITLE0=All Blues
TTITLE1=My Foolish Heart
TTITLE2=But Not For Me
TTITLE3=Memories Of You
TTITLE4=Yesterdays
TTITLE5=While We're Young
TTITLE6=I've Told Every Little Star
TTITLE7=Capricious
TTITLE8=What Am I Here For
TTITLE9=Onyx Mood - Sooft Lights and Sweet Music - Kaleidoscope
TTITLE10=Lester Leaps In
EXTD=YEAR: 2003
EXTT0=
EXTT1=
EXTT2=
EXTT3=
EXTT4=
EXTT5=
EXTT6=
EXTT7=
EXTT8=
EXTT9=
EXTT10=
PLAYORDER=
